<mxfile host="65bd71144e">
    <diagram id="Hc0_mtBgdN142jtXjjyy" name="Page-1">
        <mxGraphModel dx="1538" dy="815" grid="1" gridSize="10" guides="1" tooltips="1" connect="1" arrows="1" fold="1" page="1" pageScale="1" pageWidth="850" pageHeight="1100" math="0" shadow="0">
            <root>
                <mxCell id="0"/>
                <mxCell id="1" parent="0"/>
                <mxCell id="2" value="" style="strokeWidth=1;shadow=0;dashed=0;align=center;html=1;shape=mxgraph.mockup.containers.browserWindow;rSize=0;strokeColor=#666666;strokeColor2=#008cff;strokeColor3=#c4c4c4;mainText=,;recursiveResize=0;" vertex="1" parent="1">
                    <mxGeometry x="-90" y="130" width="670" height="540" as="geometry"/>
                </mxCell>
                <mxCell id="3" value="Page 1" style="strokeWidth=1;shadow=0;dashed=0;align=center;html=1;shape=mxgraph.mockup.containers.anchor;fontSize=17;fontColor=#666666;align=left;" vertex="1" parent="2">
                    <mxGeometry x="60" y="12" width="110" height="26" as="geometry"/>
                </mxCell>
                <mxCell id="4" value="http://127.0.0.1:8050" style="strokeWidth=1;shadow=0;dashed=0;align=center;html=1;shape=mxgraph.mockup.containers.anchor;rSize=0;fontSize=17;fontColor=#666666;align=left;" vertex="1" parent="2">
                    <mxGeometry x="130" y="60" width="250" height="26" as="geometry"/>
                </mxCell>
                <mxCell id="5" value="&lt;font style=&quot;font-size: 18px;&quot;&gt;YOKYO OLYMPICS DASHBOARD&lt;/font&gt;" style="text;strokeColor=none;fillColor=none;html=1;fontSize=24;fontStyle=1;verticalAlign=middle;align=center;" vertex="1" parent="2">
                    <mxGeometry x="100" y="110" width="100" height="40" as="geometry"/>
                </mxCell>
                <mxCell id="10" value="CARD" style="strokeWidth=1;shadow=0;dashed=0;align=center;html=1;shape=mxgraph.mockup.buttons.button;strokeColor=#666666;mainText=;buttonStyle=round;fontSize=17;fontStyle=0;fillColor=#f5f5f5;whiteSpace=wrap;gradientColor=#b3b3b3;" vertex="1" parent="2">
                    <mxGeometry x="10" y="150" width="100" height="30" as="geometry"/>
                </mxCell>
                <mxCell id="11" value="CARD" style="strokeWidth=1;shadow=0;dashed=0;align=center;html=1;shape=mxgraph.mockup.buttons.button;strokeColor=#666666;mainText=;buttonStyle=round;fontSize=17;fontStyle=0;fillColor=#f5f5f5;whiteSpace=wrap;gradientColor=#b3b3b3;" vertex="1" parent="2">
                    <mxGeometry x="120" y="150" width="100" height="30" as="geometry"/>
                </mxCell>
                <mxCell id="12" value="CARD" style="strokeWidth=1;shadow=0;dashed=0;align=center;html=1;shape=mxgraph.mockup.buttons.button;strokeColor=#666666;mainText=;buttonStyle=round;fontSize=17;fontStyle=0;fillColor=#f5f5f5;whiteSpace=wrap;gradientColor=#b3b3b3;" vertex="1" parent="2">
                    <mxGeometry x="230" y="150" width="100" height="30" as="geometry"/>
                </mxCell>
                <mxCell id="13" value="CARD" style="strokeWidth=1;shadow=0;dashed=0;align=center;html=1;shape=mxgraph.mockup.buttons.button;strokeColor=#666666;mainText=;buttonStyle=round;fontSize=17;fontStyle=0;fillColor=#f5f5f5;whiteSpace=wrap;gradientColor=#b3b3b3;" vertex="1" parent="2">
                    <mxGeometry x="340" y="150" width="100" height="30" as="geometry"/>
                </mxCell>
                <mxCell id="14" value="CARD" style="strokeWidth=1;shadow=0;dashed=0;align=center;html=1;shape=mxgraph.mockup.buttons.button;strokeColor=#666666;mainText=;buttonStyle=round;fontSize=17;fontStyle=0;fillColor=#f5f5f5;whiteSpace=wrap;gradientColor=#b3b3b3;" vertex="1" parent="2">
                    <mxGeometry x="450" y="150" width="100" height="30" as="geometry"/>
                </mxCell>
                <mxCell id="15" value="CARD" style="strokeWidth=1;shadow=0;dashed=0;align=center;html=1;shape=mxgraph.mockup.buttons.button;strokeColor=#666666;mainText=;buttonStyle=round;fontSize=17;fontStyle=0;fillColor=#f5f5f5;whiteSpace=wrap;gradientColor=#b3b3b3;" vertex="1" parent="2">
                    <mxGeometry x="560" y="150" width="100" height="30" as="geometry"/>
                </mxCell>
                <mxCell id="17" value="BUTTON" style="strokeWidth=1;shadow=0;dashed=0;align=center;html=1;shape=mxgraph.mockup.buttons.button;strokeColor=#666666;mainText=;buttonStyle=round;fontSize=17;fontStyle=0;fillColor=#f5f5f5;whiteSpace=wrap;gradientColor=#b3b3b3;" vertex="1" parent="2">
                    <mxGeometry x="565" y="120" width="90" height="20" as="geometry"/>
                </mxCell>
                <mxCell id="20" value="" style="verticalLabelPosition=bottom;shadow=0;dashed=0;align=center;html=1;verticalAlign=top;strokeWidth=1;shape=mxgraph.mockup.graphics.pieChart;strokeColor=#008cff;parts=10,20,35;partColors=#e0e0e0,#d0d0d0,#c0c0c0,#b0b0b0,#a0a0a0;strokeWidth=2;fontSize=18;" vertex="1" parent="2">
                    <mxGeometry x="190" y="340" width="130" height="120" as="geometry"/>
                </mxCell>
                <mxCell id="21" value="" style="verticalLabelPosition=bottom;shadow=0;dashed=0;align=center;html=1;verticalAlign=top;strokeWidth=1;shape=mxgraph.mockup.graphics.lineChart;strokeColor=none;strokeColor2=#666666;strokeColor3=#008cff;strokeColor4=#dddddd;fontSize=18;" vertex="1" parent="2">
                    <mxGeometry x="330" y="210" width="310" height="120" as="geometry"/>
                </mxCell>
                <mxCell id="22" value="" style="verticalLabelPosition=bottom;shadow=0;dashed=0;align=center;html=1;verticalAlign=top;strokeWidth=1;shape=mxgraph.mockup.graphics.columnChart;strokeColor=none;strokeColor2=none;strokeColor3=#666666;fillColor2=#008cff;fillColor3=#dddddd;fontSize=18;" vertex="1" parent="2">
                    <mxGeometry x="190" y="200" width="130" height="130" as="geometry"/>
                </mxCell>
                <mxCell id="23" value="" style="verticalLabelPosition=bottom;shadow=0;dashed=0;align=center;html=1;verticalAlign=top;strokeWidth=1;shape=mxgraph.mockup.graphics.columnChart;strokeColor=none;strokeColor2=none;strokeColor3=#666666;fillColor2=#008cff;fillColor3=#dddddd;fontSize=18;" vertex="1" parent="2">
                    <mxGeometry x="330" y="335" width="330" height="130" as="geometry"/>
                </mxCell>
                <mxCell id="24" value="Option 1" style="strokeWidth=1;shadow=0;dashed=0;align=center;html=1;shape=mxgraph.mockup.forms.comboBox;strokeColor=#999999;fillColor=#ddeeff;align=left;fillColor2=#aaddff;mainText=;fontColor=#666666;fontSize=17;spacingLeft=3;" vertex="1" parent="2">
                    <mxGeometry x="10" y="200" width="150" height="30" as="geometry"/>
                </mxCell>
                <mxCell id="25" value="Option 1" style="strokeWidth=1;shadow=0;dashed=0;align=center;html=1;shape=mxgraph.mockup.forms.comboBox;strokeColor=#999999;fillColor=#ddeeff;align=left;fillColor2=#aaddff;mainText=;fontColor=#666666;fontSize=17;spacingLeft=3;" vertex="1" parent="2">
                    <mxGeometry x="10" y="250" width="150" height="30" as="geometry"/>
                </mxCell>
                <mxCell id="26" value="" style="verticalLabelPosition=bottom;shadow=0;dashed=0;align=center;html=1;verticalAlign=top;strokeWidth=1;shape=mxgraph.mockup.graphics.lineChart;strokeColor=none;strokeColor2=#666666;strokeColor3=#008cff;strokeColor4=#dddddd;fontSize=18;" vertex="1" parent="2">
                    <mxGeometry x="10" y="290" width="150" height="120" as="geometry"/>
                </mxCell>
                <mxCell id="27" value="" style="strokeWidth=1;shadow=0;dashed=0;align=center;html=1;shape=mxgraph.mockup.forms.pwField;strokeColor=#999999;mainText=;align=left;fontColor=#666666;fontSize=17;spacingLeft=3;" vertex="1" parent="2">
                    <mxGeometry x="20" y="420" width="50" height="20" as="geometry"/>
                </mxCell>
                <mxCell id="29" value="" style="strokeWidth=1;shadow=0;dashed=0;align=center;html=1;shape=mxgraph.mockup.forms.pwField;strokeColor=#999999;mainText=;align=left;fontColor=#666666;fontSize=17;spacingLeft=3;" vertex="1" parent="2">
                    <mxGeometry x="90" y="420" width="50" height="20" as="geometry"/>
                </mxCell>
                <mxCell id="28" value="" style="strokeWidth=1;shadow=0;dashed=0;align=center;html=1;shape=mxgraph.mockup.forms.pwField;strokeColor=#999999;mainText=;align=left;fontColor=#666666;fontSize=17;spacingLeft=3;" vertex="1" parent="2">
                    <mxGeometry x="20" y="450" width="50" height="20" as="geometry"/>
                </mxCell>
                <mxCell id="30" value="BUTTON" style="strokeWidth=1;shadow=0;dashed=0;align=center;html=1;shape=mxgraph.mockup.buttons.button;strokeColor=#666666;fontColor=#ffffff;mainText=;buttonStyle=round;fontSize=17;fontStyle=1;fillColor=#008cff;whiteSpace=wrap;" vertex="1" parent="2">
                    <mxGeometry x="90" y="450" width="70" height="30" as="geometry"/>
                </mxCell>
                <mxCell id="31" value="" style="verticalLabelPosition=bottom;shadow=0;dashed=0;align=center;html=1;verticalAlign=top;strokeWidth=1;shape=mxgraph.mockup.graphics.simpleIcon;strokeColor=#999999;fontSize=18;" vertex="1" parent="2">
                    <mxGeometry x="20" y="490" width="140" height="40" as="geometry"/>
                </mxCell>
            </root>
        </mxGraphModel>
    </diagram>
</mxfile>